<!--?xml version="1.0" standalone="no"?-->
              <svg id="sw-js-blob-svg" viewBox="0 0 100 100" xmlns="http://www.w3.org/2000/svg" version="1.1">
                    <defs> 
                        <linearGradient id="sw-gradient" x1="0" x2="1" y1="1" y2="0">
                            <stop id="stop1" stop-color="rgba(170, 188, 202, 1)" offset="0%"></stop>
                            <stop id="stop2" stop-color="rgba(170, 188, 202, 1)" offset="100%"></stop>
                        </linearGradient>
                    </defs>
                <path fill="url(#sw-gradient)" d="M26.2,-30.6C33.8,-24.9,39.6,-16.4,40.3,-7.8C41.1,0.9,36.7,9.8,31.8,18.5C26.9,27.2,21.5,35.7,13.3,40.3C5.2,44.9,-5.8,45.4,-13.7,41.1C-21.7,36.7,-26.6,27.5,-29.3,18.8C-31.9,10.2,-32.4,2.2,-32.3,-7C-32.3,-16.2,-31.7,-26.7,-26.3,-32.9C-20.8,-39,-10.4,-40.8,-0.5,-40.2C9.3,-39.6,18.6,-36.4,26.2,-30.6Z" width="100%" height="100%" transform="translate(50 50)" style="transition: 0.3s;" stroke-width="0"></path>
              </svg>