<svg viewBox="0 0 200 200" xmlns="http://www.w3.org/2000/svg">
  <path fill="#AABCCA" d="M46.9,-73.7C60.6,-73.2,71.5,-60.4,78.4,-46C85.2,-31.7,88.1,-15.9,82.8,-3.1C77.5,9.8,64.1,19.5,54.7,29.4C45.3,39.4,39.9,49.5,31.4,59.9C23,70.3,11.5,81,-2.3,85C-16,88.9,-32,86,-45.8,78.7C-59.5,71.3,-71,59.5,-73.3,45.6C-75.6,31.7,-68.7,15.9,-68.7,0C-68.8,-15.9,-75.6,-31.8,-73.5,-45.9C-71.3,-60.1,-60.2,-72.5,-46.4,-72.9C-32.7,-73.4,-16.3,-62,0.1,-62.2C16.6,-62.4,33.1,-74.2,46.9,-73.7Z" transform="translate(100 100)" />
</svg>
